# xmcd
#
# Track frame offsets:
#	180
#	12726
#	30344
#	42366
#	56713
#	74998
#	90453
#	108892
#	126492
#	139417
#	159415
#	174351
#	191467
#	207969
#	227620
#
# Disc length: 3302 seconds
#
# Revision: 1
# Processed by: cddbd v1.5.2PL0 Copyright (c) Steve Scherf et al.
# Submitted via: audiograbber 1.83.01
#
DISCID=d40ce40f
DTITLE=Glory Train - 074 Elpis
DYEAR=2008
DGENRE=Country
TTITLE0=What Must I Do To Get To Heaven  - David Nall
TTITLE1=I Didn´t Find Jesus  - The Springs
TTITLE2=Hard To Keep A Good Man Down  - Larry Cochran
TTITLE3=Good Morning Lord  - The Morris Brothers
TTITLE4=Love Me Anyway  - Corey Brooks
TTITLE5=The Fix I´m In  - Stuart Carmichael
TTITLE6=Thank You Jesus  - Elvis L Carden
TTITLE7=Jesus Lives  - Heirs Of Salvation
TTITLE8=My Beatiful Home  - Bob Mayfield
TTITLE9=A Rag And A Rock - Larry Mayfield
TTITLE10=The Long Road Home  - Delbert Brown
TTITLE11=We´ll Never Get Of Here Alive  - Red Higgins
TTITLE12=The Word Of The Living God  - Ron Thompson
TTITLE13=Flight Of The Mercy Train  - Robert Shiels
TTITLE14=Back Roads Of My Mind  - Wilf Montan
EXTD=
EXTT0=
EXTT1=
EXTT2=
EXTT3=
EXTT4=
EXTT5=
EXTT6=
EXTT7=
EXTT8=
EXTT9=
EXTT10=
EXTT11=
EXTT12=
EXTT13=
EXTT14=
PLAYORDER=
